HIERARCHY
ROOT Hips
{
  OFFSET -102.467 93.6631 130.069
  CHANNELS 6 Xposition Yposition Zposition Zrotation Xrotation Yrotation
  JOINT LeftUpLeg
  {
    OFFSET 8.64259 1.95398 -2.38835
    CHANNELS 3 Zrotation Xrotation Yrotation
    JOINT LeftLeg
    {
      OFFSET 43.7702 0 0
      CHANNELS 3 Zrotation Xrotation Yrotation
      JOINT LeftFoot
      {
        OFFSET 40.6238 0 0
        CHANNELS 3 Zrotation Xrotation Yrotation
        JOINT LeftToeBase
        {
          OFFSET 12.7242 0 0
          CHANNELS 3 Zrotation Xrotation Yrotation
          End Site
          {
            OFFSET 0 0 0
          }
        }
      }
    }
  }
  JOINT RightUpLeg
  {
    OFFSET -8.2249 1.95398 -2.59336
    CHANNELS 3 Zrotation Xrotation Yrotation
    JOINT RightLeg
    {
      OFFSET 43.5653 0 0
      CHANNELS 3 Zrotation Xrotation Yrotation
      JOINT RightFoot
      {
        OFFSET 40.6238 0 0
        CHANNELS 3 Zrotation Xrotation Yrotation
        JOINT RightToeBase
        {
          OFFSET 12.7242 0 0
          CHANNELS 3 Zrotation Xrotation Yrotation
          End Site
          {
            OFFSET 0 0 0
          }
        }
      }
    }
  }
  JOINT Spine
  {
    OFFSET 0.165834 0.87714 6.61349
    CHANNELS 3 Zrotation Xrotation Yrotation
    JOINT Spine1
    {
      OFFSET 7.38963 1.71661e-005 0
      CHANNELS 3 Zrotation Xrotation Yrotation
      JOINT Spine2
      {
        OFFSET 11.9445 1.14441e-005 0
        CHANNELS 3 Zrotation Xrotation Yrotation
        JOINT Spine3
        {
          OFFSET 14.7254 4.19617e-005 0
          CHANNELS 3 Zrotation Xrotation Yrotation
          JOINT Spine4
          {
            OFFSET 10.9679 0 0
            CHANNELS 3 Zrotation Xrotation Yrotation
            JOINT RightShoulder
            {
              OFFSET 2.46616 -1.6653 3.69651
              CHANNELS 3 Zrotation Xrotation Yrotation
              JOINT RightArm
              {
                OFFSET 13.0012 0 0
                CHANNELS 3 Zrotation Xrotation Yrotation
                JOINT RightForeArm
                {
                  OFFSET 28.7848 1.52588e-005 0
                  CHANNELS 3 Zrotation Xrotation Yrotation
                  JOINT RightHand
                  {
                    OFFSET 26.5688 1.52588e-005 0
                    CHANNELS 3 Zrotation Xrotation Yrotation
                    End Site
                    {
                      OFFSET 0 0 0
                    }
                  }
                }
              }
            }
            JOINT LeftShoulder
            {
              OFFSET 2.38034 -1.29275 -3.7523
              CHANNELS 3 Zrotation Xrotation Yrotation
              JOINT LeftArm
              {
                OFFSET 16.3182 6.10351e-005 0
                CHANNELS 3 Zrotation Xrotation Yrotation
                JOINT LeftForeArm
                {
                  OFFSET 27.0901 0 0
                  CHANNELS 3 Zrotation Xrotation Yrotation
                  JOINT LeftHand
                  {
                    OFFSET 24.5451 1.52588e-005 0
                    CHANNELS 3 Zrotation Xrotation Yrotation
                    End Site
                    {
                      OFFSET 0 0 0
                    }
                  }
                }
              }
            }
            JOINT Neck
            {
              OFFSET 5.0226 -0.0266342 0
              CHANNELS 3 Zrotation Xrotation Yrotation
              JOINT Head
              {
                OFFSET 6.69363 2.86102e-005 0
                CHANNELS 3 Zrotation Xrotation Yrotation
                End Site
                {
                  OFFSET 0 0 0
                }
              }
            }
          }
        }
      }
    }
  }
}
MOTION
Frames:	18
Frame Time:	0.0416667
-364.787 81.4147 -9.93786 37.7314 36.1051 111.66 -144.599 36.286 98.3466 3.986 28.5454 -48.6352 20.3758 -19.0623 -27.1587 -119.323 -24.9517 22.4544 146.055 68.4143 70.5198 -63.4261 -12.9885 20.0065 -41.3231 62.396 30.2556 102.539 63.7998 86.78 -1.94186 2.59333 -86.6864 21.7064 -1.94208 7.26945 10.0162 -1.62115 7.3473 -12.3991 -4.03296 6.35599 7.61356 -4.03294 6.356 100.134 -84.8284 -84.3322 -10.2987 48.116 79.828 -116.852 22.4256 -93.776 -2.59433 0.888812 -54.8695 -86.7412 -35.4369 80.6504 104.078 -2.63172 -129.27 -116.08 45.9102 -20.2002 107.502 11.2384 3.59318 -3.22045 -26.8325 -52.991 146.117 37.0608 -8.04818 
-365.354 81.4525 -10.0989 37.6817 35.8492 111.328 -144.015 36.1956 98.0652 6.95107 30.4891 -50.9388 21.8186 -18.5411 -26.6242 -118.078 -31.1068 25.138 145.375 68.3565 71.7607 -64.3252 -13.6514 19.548 -40.7494 63.0961 30.8167 100.179 63.617 88.6642 -2.00173 2.46008 -86.7538 21.9793 -2.08505 7.17934 10.2897 -1.7679 7.26353 -12.1322 -4.14245 6.22699 7.88042 -4.14243 6.227 94.9688 -84.5152 -89.8095 -11.7522 47.2441 80.6384 -125.573 23.5843 -90.6385 -1.0574 0.174257 -55.8868 -86.3065 -37.2731 81.8096 105.922 -2.5731 -129.603 -118.302 43.0713 -19.14 108.465 10.0011 2.59767 -3.16905 -26.1217 -51.77 146.34 36.8435 -8.15346 
-366.964 81.5599 -10.5542 37.5527 35.1319 110.393 -142.444 35.8057 97.2739 15.9246 35.1412 -57.8653 26.3946 -16.9178 -24.8529 -112.247 -46.135 34.0764 143.356 67.8839 75.4711 -66.6294 -15.3529 18.1955 -39.0341 65.1015 32.3146 94.1825 62.8524 93.2704 -2.17212 2.08232 -86.9646 22.7546 -2.50206 6.89225 11.0672 -2.19706 6.995 -11.3754 -4.45456 5.82739 8.63729 -4.45456 5.82739 82.9806 -83.4096 -102.72 -15.6775 44.6215 82.7043 -146.301 24.7636 -82.9219 1.63232 -1.17484 -58.717 -84.6809 -42.4816 85.4814 111.268 -2.45476 -130.493 -123.785 34.6903 -16.8272 110.403 5.82328 -0.428033 -2.94009 -23.9041 -48.1371 146.864 36.3003 -8.2592 
-369.326 81.679 -11.4338 29.4582 32.5919 110.875 -140.061 30.9641 92.9792 30.0264 35.4144 -68.3024 34.6974 -14.0324 -22.2372 -100.509 -60.9242 49.8477 151.479 73.0001 67.2272 -69.7687 -17.4817 16.8276 -35.8651 68.3436 34.2472 86.9001 61.1993 98.3229 -2.44901 0.987447 -87.8381 25.5132 -3.13213 6.77399 13.8265 -2.8319 6.90447 -8.6275 -5.0193 5.52517 11.3852 -5.01932 5.52516 70.6296 -81.3336 -116.565 -21.2598 40.2206 85.2624 -167.377 24.1234 -75.2454 2.61944 -1.76132 -61.4727 -80.9083 -50.2396 92.22 119.425 -2.11373 -131.766 -130.352 21.9244 -14.66 110.532 -1.3843 -5.21607 -2.33355 -19.8218 -42.1411 147.355 35.8487 -7.76624 
-374.592 82.5729 -9.60611 157.327 37.0307 70.1952 -160.07 34.4511 -178.066 120.973 45.4551 168.826 52.7722 -9.33592 -6.73901 -12.1998 -65.2656 142.964 125.743 -34.9817 53.4678 -67.0677 -20.4601 2.18605 -34.6207 70.5909 35.4455 80.9383 58.7009 101.309 -2.1121 11.9754 -90.0687 2.91499 -4.24589 -0.179116 -8.749 -4.24964 0.00827585 -31.335 -3.99545 -1.44893 -11.3224 -3.99545 -1.44893 61.1818 -78.5076 -127.936 -27.8055 34.1973 87.5146 174.32 22.7624 -68.6258 1.78217 -1.28889 -60.5022 -73.6184 -58.9 102.694 128.41 -0.574288 -133.49 -136.272 8.13532 -13.0479 106.142 -9.00399 -10.792 -1.40445 -13.3427 -34.2388 147.514 36.1929 -5.95705 
-379.637 80.5386 -10.4656 161.341 34.2794 68.6612 -160.77 33.5215 -174.32 116.722 31.244 168.109 65.0518 1.12229 0.901543 -164.504 46.5713 13.5225 117.821 -41.029 47.3319 -72.16 -23.0787 -0.484506 -24.8068 75.4313 33.8067 76.7195 55.8036 102.092 -2.99704 11.9788 -89.9227 2.90912 -5.95597 0.0879573 -8.74818 -5.9463 0.350946 -31.3869 -5.7061 -1.71209 -11.3742 -5.7061 -1.71208 54.5144 -75.4524 -136.688 -35.1237 26.956 88.9157 153.056 21.1355 -65.5873 9.78627 3.47671 -22.6717 -61.7711 -66.3675 117.226 135.326 3.53089 -136.031 -140.782 -4.44795 -11.369 98.3021 -14.7072 -16.5134 -1.3865 -5.28996 -25.2864 147.638 36.869 -3.08081 
-386.063 77.7626 -11.5565 164.839 31.4339 67.4932 -160.491 33.2007 -172.426 112.317 21.8583 166.888 74.6914 12.2493 5.19347 -173.89 4.08272 14.1471 106.136 -46.8414 37.7983 -75.799 -25.266 -2.9945 -6.08163 79.9556 23.3663 74.3559 52.8511 100.785 -3.87804 11.9156 -89.7619 3.0408 -7.65246 0.397533 -8.60768 -7.62751 0.735938 -31.3171 -7.41611 -1.9338 -11.3044 -7.41612 -1.9338 49.9381 -72.5055 -143.287 -43.5751 19.1536 89.1272 130.236 15.3217 -76.7211 4.28481 -0.876182 93.5578 -45.8387 -71.3176 135.066 138.203 10.8055 -139.177 -143.95 -17.9892 -9.08306 90.4416 -20.002 -23.3511 -2.54882 3.15224 -15.7339 147.825 37.6148 0.378101 
-393.706 75.0205 -12.9996 167.587 28.6977 66.7166 -159.016 33.7858 -172.872 106.831 16.9289 165.706 79.3916 20.6999 6.74177 173.016 4.05754 13.967 89.5843 -51.2623 23.7908 -75.7048 -26.7159 -5.00551 23.7537 82.1999 0.351205 73.4836 50.0712 97.9895 -4.67269 11.8106 -89.6226 3.25949 -9.18475 0.682955 -8.37914 -9.14571 1.08994 -31.1685 -8.96177 -2.13209 -11.1559 -8.96176 -2.1321 47.0997 -69.9109 -147.885 -54.6357 11.6473 88.0656 113.607 2.63597 -70.3406 -8.93258 -14.4098 119.053 -29.1188 -73.6336 153.058 137.057 20.4361 -141.964 -145.573 -34.3579 -6.1457 83.1743 -25.8233 -32.1169 -4.08362 13.1094 -6.69857 147.271 40.6019 4.88204 
-402.358 72.8281 -14.8307 169.493 26.2087 66.2918 -155.498 35.168 -175.808 101.336 15.2645 164.967 79.32 25.7423 7.40928 163.407 4.62983 14.4375 69.4344 -52.7321 6.46628 -70.8011 -27.3719 -6.25254 45.9063 81.8098 -17.5153 73.717 47.5525 94.2723 -5.29712 11.6507 -89.5316 3.5896 -10.3955 0.899454 -8.03993 -10.3457 1.36106 -30.9032 -10.18 -2.30022 -10.8906 -10.1799 -2.30024 45.3399 -68.0606 -150.918 -72.8432 4.8748 85.6467 109.825 -6.68782 -56.9716 -13.8458 -29.8522 127.864 -15.9682 -74.2738 167.006 133.333 31.2184 -144.008 -144.471 -52.1927 -1.87551 75.261 -30.7644 -42.0345 -7.09183 23.5029 1.19166 146.433 45.6862 9.67305 
-411.76 71.3288 -16.9789 170.558 24.0355 66.159 -148.971 36.9363 178.463 97.1684 14.2252 164.918 75.4172 27.8924 9.83781 156.729 5.11798 14.8894 49.1521 -50.7376 -10.7156 -60.7665 -27.2272 -6.50202 47.8362 80.618 -18.1614 74.7549 45.2919 90.049 -5.76463 11.4558 -89.5071 3.98789 -11.319 1.00574 -7.63387 -11.2636 1.50934 -30.5594 -11.0911 -2.48641 -10.5467 -11.0911 -2.48641 44.6058 -66.7189 -152.535 -108.616 -0.170911 81.6891 118.025 -7.53475 -29.3735 -13.468 -34.7543 137.071 -6.27313 -74.2794 177.21 128.008 42.4964 -144.663 177.122 68.1277 144.392 66.7652 -33.7991 -51.858 -11.5702 33.2232 8.52199 145.147 51.9561 14.3474 
-421.584 70.4813 -19.311 170.829 22.1962 66.2654 -139.193 38.1269 169.774 96.303 15.7378 165.263 71.1634 28.7701 10.9691 152.17 5.42725 15.2338 30.8527 -45.8896 -25.5285 -44.915 -26.1268 -5.4867 33.5434 79.0008 -5.95214 76.364 43.2475 85.6085 -6.09557 11.244 -89.5528 4.4154 -11.9974 0.986552 -7.20008 -11.9423 1.52132 -30.1735 -11.7312 -2.71684 -10.1609 -11.7312 -2.71684 44.8228 -65.6715 -152.923 -174.619 -0.215518 77.6663 82.4719 42.9852 -2.4689 10.973 43.4823 156.211 1.39489 -74.1864 -174.85 121.162 53.8193 -143.104 -28.7327 88.6721 -1.87492 58.5895 -34.9898 -60.6019 -17.716 42.7024 15.9111 142.393 59.6433 19.8727 
-431.484 70.1678 -21.67 170.371 20.6772 66.5736 -127.279 37.3822 158.778 98.9219 18.3408 165.927 67.8141 29.0447 11.7807 149.04 5.64517 15.4947 8.00056 -33.6736 -42.0073 -7.11383 -20.8865 -0.878337 -1.75166 72.8836 16.2537 78.3437 41.3688 81.1638 -6.31705 11.0314 -89.6634 4.83866 -12.484 0.843798 -6.77194 -12.4346 1.40113 -29.7797 -12.1514 -3.00529 -9.76704 -12.1513 -3.00529 45.8892 -64.7101 -152.303 114.602 0.734208 79.6216 31.1102 9.6401 0.190108 138.589 -42.8517 -23.5379 8.55877 -74.2391 -167.662 111.321 64.6948 -137.364 -29.4603 70.7414 -0.128424 51.3859 -34.8864 -67.8427 -26.9047 52.5839 24.959 134.83 68.9829 29.6949 
-441.161 70.259 -23.9101 169.247 19.4482 67.0614 -115.586 33.6842 147.137 104.947 22.0959 166.864 66.5629 29.1798 11.9489 146.882 5.84535 15.7114 2.5304 -30.8022 -45.1861 -0.519489 -19.7461 -0.0419282 -1.13863 71.3821 15.8513 80.5163 39.6134 76.8775 -6.4562 10.8313 -89.8291 5.23021 -12.8292 0.589754 -6.37666 -12.7906 1.16333 -29.4069 -12.4036 -3.35534 -9.39427 -12.4036 -3.35532 47.6429 -63.6657 -150.939 69.525 -2.70255 81.3762 26.4119 -26.8555 0.015547 46.3542 -45.5889 -93.147 16.5082 -74.528 -159.98 92.2888 74.1844 -121.061 -28.5212 54.3515 -0.0710039 45.3191 -34.0279 -73.6332 -40.3882 60.9011 37.7932 115.57 77.5089 50.6055 
-450.385 70.6505 -25.9213 167.504 18.4742 67.7184 -106.451 26.8539 136.435 114.046 27.291 168.144 67.9476 29.1426 11.2488 145.424 6.08223 15.9185 0.226477 -31.2568 -46.047 -0.446886 -19.1829 -0.0292103 3.62439 70.7468 13.5135 82.728 37.9594 72.8731 -6.53646 10.6553 -90.0388 5.56687 -13.0759 0.240346 -6.03715 -13.0525 0.825758 -29.0804 -12.5335 -3.76491 -9.06771 -12.5335 -3.76491 49.8848 -62.409 -149.109 44.2349 -6.45488 80.2928 22.2115 -28.1531 0.0137412 30.2922 -29.6901 -92.4854 26.4923 -75.027 -150.618 47.4802 78.9216 -77.6179 -27.5244 39.3482 -0.0518553 40.2807 -32.7811 -78.2229 -69.2262 69.0424 65.175 41.31 79.5039 125.629 
-458.991 71.2665 -27.6494 165.166 17.7184 68.5454 -101.237 17.2336 127.149 125.994 34.5286 169.927 72.0613 28.4213 9.4388 144.511 6.41777 16.1546 -1.75154 -33.0554 -46.885 -0.379729 -18.2028 -0.0172238 6.9297 69.9122 11.9702 84.8396 36.4106 69.2552 -6.57784 10.5144 -90.2819 5.82712 -13.26 -0.187809 -5.77475 -13.2551 0.406594 -28.8235 -12.5802 -4.22933 -8.8109 -12.5802 -4.22934 52.4064 -60.839 -147.085 30.1871 -8.96791 77.7978 19.4384 -26.676 0.0115437 24.3424 -22.0384 -87.6701 39.9167 -75.5537 -138.261 3.52963 73.9101 -33.7686 -26.2404 25.3065 -0.0420951 36.0774 -31.3571 -81.8849 -2.95241 -2.47186 29.3314 171.203 11.7744 0.650105 
-466.86 72.0392 -29.141 162.236 17.141 69.5543 -100.596 4.84465 118.78 141.135 44.8562 172.49 78.5204 25.8126 6.34423 144.07 6.94696 16.4727 -3.48251 -36.0648 -47.8968 -0.342016 -16.9079 -0.00933782 8.97359 69.0425 11.1137 86.7216 34.9934 66.1218 -6.59584 10.4181 -90.5482 5.99203 -13.4078 -0.678877 -5.60818 -13.4245 -0.077103 -28.657 -12.5738 -4.74176 -8.6443 -12.5738 -4.74177 55.0208 -58.8796 -145.113 22.6337 -10.421 74.7982 18.0979 -24.9334 0.00949048 21.3297 -18.0539 -83.643 58.0713 -75.652 -121.742 -11.9489 62.9847 -17.2389 -24.0142 11.6017 -0.0356247 32.5212 -29.8661 -84.85 81.2865 -50.4486 82.9517 160.291 -71.7557 -14.0392 
-473.83 72.8495 -30.5948 158.683 16.6946 70.7683 -104.692 -12.4786 111.006 164.803 60.0568 176.84 86.6877 16.9746 1.68952 144.104 7.79505 16.9353 -4.92002 -40.0467 -49.2526 -0.307097 -15.5087 -0.00234517 9.81333 68.2496 10.9891 88.2619 33.7542 63.5576 -6.59716 10.3717 -90.8301 6.05167 -13.5291 -1.21946 -5.54735 -13.5694 -0.611549 -28.5911 -12.5273 -5.29244 -8.57842 -12.5273 -5.29244 57.6005 -56.4915 -143.354 18.8679 -11.1739 71.4253 17.7475 -23.113 0.00771457 19.6396 -15.751 -80.4925 80.5573 -74.4668 -101.622 -15.8529 47.8887 -11.1494 -19.5225 -2.33704 -0.028802 29.4648 -28.3668 -87.2933 60.4851 -44.559 62.0592 171.391 -56.9036 -2.1562 
-479.481 73.4647 -32.2788 154.447 16.3165 72.2205 -118.82 -22.811 99.3968 176.882 78.5669 179.533 87.6285 12.2643 -0.842489 144.616 9.01239 17.5559 -5.82461 -44.6412 -51.0246 -0.289829 -15.1957 0.00196199 9.82727 68.4098 11.4019 89.3691 32.7528 61.6346 -6.5769 10.3742 -91.1218 6.009 -13.6111 -1.79847 -5.58955 -13.6768 -1.18627 -28.622 -12.4321 -5.86678 -8.60935 -12.4322 -5.86678 60.0976 -53.6789 -141.865 17.2257 -11.3723 67.5436 17.7697 -21.121 0.00634678 18.6477 -14.2989 -77.9215 103.581 -70.9473 -81.8899 -14.812 26.903 -8.63693 -10.5105 -16.6654 -0.0164057 26.8058 -26.9013 -89.3514 48.326 -34.7024 48.2516 176.122 -43.6975 3.0602 
